HIERARCHY
ROOT Hips
{
	OFFSET 0.000000 0.000000 0.000000 
	CHANNELS 6 Xposition Yposition Zposition Zrotation Yrotation Xrotation
	JOINT LeftUpLeg
	{
		OFFSET 1.363060 -1.794630 0.839290 
		CHANNELS 3 Zrotation Yrotation Xrotation
		JOINT LeftLeg
		{
			OFFSET 2.448110 -6.726130 0.000000 
			CHANNELS 3 Zrotation Yrotation Xrotation
			JOINT LeftFoot
			{
				OFFSET 2.562200 -7.039590 0.000000 
				CHANNELS 3 Zrotation Yrotation Xrotation
				JOINT LeftToeBase
				{
					OFFSET 0.157640 -0.433110 2.322550 
					CHANNELS 3 Zrotation Yrotation Xrotation
					End Site
					{
						OFFSET 0.000000 0.000000 0.000000 
					}
				}
			}
		}
	}
	JOINT RightUpLeg
	{
		OFFSET -1.305520 -1.794630 0.839290 
		CHANNELS 3 Zrotation Yrotation Xrotation
		JOINT RightLeg
		{
			OFFSET -2.542530 -6.985550 0.000000 
			CHANNELS 3 Zrotation Yrotation Xrotation
			JOINT RightFoot
			{
				OFFSET -2.568260 -7.056230 0.000000 
				CHANNELS 3 Zrotation Yrotation Xrotation
				JOINT RightToeBase
				{
					OFFSET -0.164730 -0.452590 2.363150 
					CHANNELS 3 Zrotation Yrotation Xrotation
					End Site
					{
						OFFSET 0.000000 0.000000 0.000000 
					}
				}
			}
		}
	}
	JOINT Spine
	{
		OFFSET 0.028270 2.035590 -0.193380 
		CHANNELS 3 Zrotation Yrotation Xrotation
		JOINT Spine1
		{
			OFFSET 0.056720 2.048850 -0.042750 
			CHANNELS 3 Zrotation Yrotation Xrotation
			JOINT Neck1
			{
				OFFSET -0.054170 1.746240 0.172020 
				CHANNELS 3 Zrotation Yrotation Xrotation
				JOINT Head
				{
					OFFSET 0.104070 1.761360 -0.123970 
					CHANNELS 3 Zrotation Yrotation Xrotation
					End Site
					{
						OFFSET 0.000000 0.000000 0.000000 
					}
				}
			}
			JOINT LeftArm
			{
				OFFSET 3.362410 1.200890 -0.311210 
				CHANNELS 3 Zrotation Yrotation Xrotation
				JOINT LeftForeArm
				{
					OFFSET 4.983000 -0.000000 -0.000000 
					CHANNELS 3 Zrotation Yrotation Xrotation
					JOINT LeftHand
					{
						OFFSET 3.483560 -0.000000 -0.000000 
						CHANNELS 3 Zrotation Yrotation Xrotation
						JOINT LeftHandIndex1
						{
							OFFSET 0.715260 -0.000000 -0.000000 
							CHANNELS 3 Zrotation Yrotation Xrotation
							End Site
							{
								OFFSET 0.000000 0.000000 0.000000 
							}
						}
					}
				}
			}
			JOINT RightArm
			{
				OFFSET -3.136600 1.374050 -0.404650 
				CHANNELS 3 Zrotation Yrotation Xrotation
				JOINT RightForeArm
				{
					OFFSET -5.241900 -0.000000 -0.000000 
					CHANNELS 3 Zrotation Yrotation Xrotation
					JOINT RightHand
					{
						OFFSET -3.444170 -0.000000 -0.000000 
						CHANNELS 3 Zrotation Yrotation Xrotation
						JOINT RightHandIndex1
						{
							OFFSET -0.622530 -0.000000 -0.000000 
							CHANNELS 3 Zrotation Yrotation Xrotation
							End Site
							{
								OFFSET 0.000000 0.000000 0.000000 
							}
						}
					}
				}
			}
		}
	}
}
MOTION
Frames: 7
Frame Time: 0.041667
-0.363707 16.823239 24.292327 176.820107 -6.815572 -168.702867 -38.592145 -3.528297 12.774117 -2.305971 -0.497094 0.920620 0.274973 1.053004 -10.748593 0.007800 0.571400 1.570000 20.657946 22.724238 -32.481673 1.379229 -11.812437 23.541757 0.470307 -12.741289 -20.292292 -0.043900 1.352700 -3.719900 1.311653 -2.145218 -4.820993 -2.388892 -1.297042 -0.469142 5.423073 2.956251 17.141638 -3.560800 1.970900 16.229900 -96.085981 4.568873 18.224497 34.474059 -42.673278 -9.062279 -0.106299 4.017184 16.130694 -7.125000 0.000000 0.000000 94.172787 -1.531106 -2.777896 -15.698710 24.465425 -2.447475 -1.611017 -2.545150 19.293608 7.125000 0.000000 0.000000 
-0.345160 16.816015 24.163364 176.760765 -7.115685 -168.708103 -38.444425 -3.422307 13.241445 -2.305313 -0.528632 0.942273 0.284396 0.838574 -10.668429 0.002400 0.319000 0.876500 20.990446 22.265017 -32.262250 1.300719 -11.942106 24.046775 0.544120 -12.935218 -19.652890 -0.050700 1.452900 -3.995900 1.330531 -2.260862 -4.828645 -2.292330 -1.354246 -0.412665 5.416207 2.889386 17.233903 -3.546600 1.916800 16.301800 -96.300697 4.734321 18.115286 33.925730 -42.273569 -8.792883 -0.111664 4.034517 16.420999 -7.125000 0.000000 0.000000 94.178452 -1.868235 -3.026988 -15.698166 24.433849 -2.443868 -1.599583 -2.555097 19.325668 7.125000 0.000000 0.000000 
-0.325535 16.812349 24.031920 176.700137 -7.421168 -168.723624 -38.287984 -3.315125 13.722149 -2.304627 -0.560913 0.964975 0.290932 0.630165 -10.558164 0.000100 0.055100 0.151300 21.286339 21.860761 -32.050432 1.220290 -12.074819 24.553428 0.631809 -13.188987 -18.916621 -0.064000 1.632700 -4.491700 1.348586 -2.375781 -4.836942 -2.197072 -1.411458 -0.362106 5.405973 2.825608 17.329374 -3.533800 1.862100 16.376200 -96.517305 4.913156 17.983337 33.360836 -41.853457 -8.519525 -0.119169 4.052806 16.725049 -7.125000 0.000000 0.000000 94.189140 -2.219715 -3.230262 -15.710075 24.416392 -2.441690 -1.589099 -2.557864 19.323084 7.125000 0.000000 0.000000 
-0.305156 16.812133 23.898428 176.644564 -7.726036 -168.753774 -38.116838 -3.198317 14.216517 -2.303665 -0.593922 0.989339 0.293586 0.438314 -10.412653 0.001300 -0.231400 -0.635700 21.541902 21.526393 -31.843618 1.142758 -12.201718 25.032969 0.726476 -13.466139 -18.091018 -0.079800 1.822000 -5.013900 1.366353 -2.488521 -4.845480 -2.100813 -1.467719 -0.321083 5.392828 2.770514 17.425415 -3.520700 1.808800 16.451000 -96.738190 5.100745 17.828736 32.765649 -41.400691 -8.235090 -0.129104 4.070809 17.027731 -7.125000 0.000000 0.000000 94.199829 -2.579362 -3.385294 -15.734193 24.414186 -2.442273 -1.577769 -2.563542 19.268865 7.125000 0.000000 0.000000 
-0.284129 16.814937 23.763966 176.612507 -8.022908 -168.799398 -37.914241 -3.064832 14.717402 -2.301980 -0.627552 1.015987 0.291701 0.262851 -10.222104 0.006500 -0.518900 -1.425900 21.774363 21.268298 -31.630939 1.072284 -12.315713 25.465828 0.819043 -13.725105 -17.200235 -0.093000 1.966500 -5.413000 1.384155 -2.592980 -4.854757 -2.009882 -1.520523 -0.295110 5.375279 2.726761 17.522061 -3.509400 1.758400 16.528300 -96.977964 5.310903 17.632142 32.169185 -40.937720 -7.953142 -0.132804 4.081743 17.353465 -7.125000 0.000000 0.000000 94.207770 -2.950081 -3.505922 -15.767640 24.419674 -2.443326 -1.566327 -2.562415 19.169855 7.125000 0.000000 0.000000 
-0.262995 16.819573 23.628748 176.617053 -8.297501 -168.864616 -37.667364 -2.900928 15.220238 -2.299087 -0.661576 1.045760 0.284310 0.111720 -9.980673 0.015800 -0.812800 -2.233900 22.021325 21.066529 -31.388249 1.010001 -12.412577 25.847770 0.894370 -13.890715 -16.291510 -0.097900 2.017900 -5.555100 1.402702 -2.686552 -4.863758 -1.926476 -1.568561 -0.282555 5.350097 2.696885 17.616819 -3.503100 1.712500 16.607000 -97.231071 5.520015 17.397730 31.543643 -40.443688 -7.664680 -0.130691 4.093860 17.681819 -7.125000 0.000000 0.000000 94.209673 -3.308771 -3.612096 -15.794547 24.419330 -2.443350 -1.555712 -2.562340 19.072471 7.125000 0.000000 0.000000 
-0.242076 16.824857 23.493315 176.665774 -8.541566 -168.945446 -37.369925 -2.702543 15.718003 -2.294734 -0.695609 1.078825 0.271135 -0.012302 -9.684947 0.029500 -1.108500 -3.047300 22.320863 20.876233 -31.101876 0.954504 -12.491145 26.186734 0.941467 -13.907928 -15.421572 -0.092700 1.963200 -5.403900 1.422474 -2.767583 -4.872535 -1.853235 -1.611089 -0.280732 5.315249 2.680107 17.710552 -3.504000 1.670900 16.689800 -97.504329 5.729192 17.109855 30.898314 -39.925607 -7.374326 -0.122238 4.104377 18.033147 -7.125000 0.000000 0.000000 94.199603 -3.647465 -3.717541 -15.804811 24.403160 -2.441123 -1.543473 -2.570120 19.009051 7.125000 0.000000 0.000000 
